<svg width="512" height="512" viewBox="0 0 512 512" fill="none" xmlns="http://www.w3.org/2000/svg">
  <defs>
    <linearGradient id="bgGradient" x1="0%" y1="0%" x2="100%" y2="100%">
      <stop offset="0%" style="stop-color:#6366F1"/>
      <stop offset="100%" style="stop-color:#4F46E5"/>
    </linearGradient>
    <linearGradient id="shieldGradient" x1="0%" y1="0%" x2="100%" y2="100%">
      <stop offset="0%" style="stop-color:#818CF8"/>
      <stop offset="100%" style="stop-color:#6366F1"/>
    </linearGradient>
  </defs>
  <!-- Rounded Square Background -->
  <rect width="512" height="512" rx="108" fill="url(#bgGradient)"/>
  <!-- Shield -->
  <path d="M256 96C256 96 160 128 128 160C128 288 176 384 256 432C336 384 384 288 384 160C352 128 256 96 256 96Z" fill="white" fill-opacity="0.15"/>
  <path d="M256 112C256 112 172 140 144 168C144 280 184 364 256 408C328 364 368 280 368 168C340 140 256 112 256 112Z" fill="white"/>
  <!-- Checkmark -->
  <path d="M224 256L248 280L296 216" stroke="url(#shieldGradient)" stroke-width="24" stroke-linecap="round" stroke-linejoin="round"/>
</svg>
